<svg width="253" height="252" viewBox="0 0 253 252" fill="none" xmlns="http://www.w3.org/2000/svg">
<g filter="url(#filter0_d_430_684)">
<path d="M213 123C213 146.566 203.391 169.17 186.281 185.854C169.17 202.539 145.955 211.941 121.727 212C97.4993 212.058 74.2366 202.768 57.0411 186.166C39.8457 169.565 30.1214 147.008 30.0011 123.442C29.8808 99.8762 39.3743 77.2261 56.3994 60.4593C73.4245 43.6925 96.5912 34.178 120.818 34.0025C145.046 33.8269 168.356 43.0048 185.636 59.523C202.916 76.0413 212.755 98.5513 212.996 122.116" fill="#5B9D57"/>
<path fill-rule="evenodd" clip-rule="evenodd" d="M114.596 95.6594C114.596 95.6594 99.555 104.868 99.0365 106.096C98.5178 107.324 92.8127 112.03 91.2568 116.123C89.8737 119.807 87.1076 130.039 86.0703 137.406C86.2432 138.838 86.0703 156.233 88.1449 158.688C90.2195 161.144 107.508 176.287 113.212 176.901C118.917 178.948 126.87 178.743 130.673 177.31C136.897 174.241 141.219 169.943 143.466 167.079C145.714 159.098 152.11 138.021 152.11 131.266C150.9 126.354 148.999 118.373 145.541 110.392C141.219 98.9324 114.596 93.407 114.596 95.658L114.596 95.6594Z" fill="#5B9D57" stroke="white" stroke-width="3" stroke-linejoin="round"/>
<path fill-rule="evenodd" clip-rule="evenodd" d="M111.645 90.1967C110.356 80.9951 100.808 83.9538 92.1387 81.7078C106.246 79.4889 119.114 82.516 119.114 82.516C113.143 75.6282 118.993 65.3707 114.762 58.1571C127.022 67.9978 119.735 78.4191 125.625 80.6719C124.42 72.9634 138.145 74.2056 151.004 63.1586C147.557 75.5138 136.249 79.4025 134.577 84.916C134.901 87.6983 138.066 86.3342 136.849 89.3079C139.358 93.0224 150.305 82.5735 157.117 81.9283C156.11 88.9611 139.632 91.7868 141.704 98.7177C134.343 93.0838 126.012 90.5631 111.647 90.1967L111.645 90.1967Z" fill="#5B9D57" stroke="white" stroke-width="3" stroke-linejoin="round"/>
<path fill-rule="evenodd" clip-rule="evenodd" d="M111.351 80.2036C110.006 72.2925 100.044 74.8363 91 72.9053C105.717 70.9976 115.316 74.0978 115.316 74.0978C109.087 68.176 97.6278 58.0022 93.2137 51.8C106.004 60.2606 118.006 70.5752 124.149 72.5123C122.893 65.8849 137.87 67.7262 143.887 52.2571C148.198 57.1569 133.208 70.3518 131.464 75.0919C131.802 77.4841 138.668 67.3101 161.732 63.2008C151.043 69.5179 138.912 76.883 137.643 79.4395C140.26 82.6331 163.401 78.5086 170.508 77.9537C169.457 84.0001 140.547 81.5707 142.708 87.5295C135.029 82.6858 126.338 80.5187 111.35 80.2036L111.351 80.2036Z" fill="#789E4F" stroke="white" stroke-width="3" stroke-linejoin="round"/>
<path fill-rule="evenodd" clip-rule="evenodd" d="M113.749 97.487C117.04 100.442 111.74 102.681 109.044 104.83C107.996 106.569 102.965 106.903 101.12 104.353C98.9867 101.723 108.342 97.0056 113.749 97.4871V97.487Z" fill="#5B9D57" stroke="white" stroke-width="3" stroke-linejoin="round"/>
<path fill-rule="evenodd" clip-rule="evenodd" d="M114.427 100.171C117.474 94.7246 128.517 99.1045 129.204 101.33C128.156 103.069 125.569 107.282 122.542 107.014C120.584 106.176 116.271 102.721 114.427 100.171V100.171Z" fill="#5B9D57" stroke="white" stroke-width="3" stroke-linejoin="round"/>
<path fill-rule="evenodd" clip-rule="evenodd" d="M137.102 108.77C135.97 105.84 132.679 102.885 135.174 101.551C140.65 102.756 147.703 110.205 148.444 117.158C146.486 116.319 138.946 111.32 137.102 108.77H137.102Z" fill="#5B9D57" stroke="white" stroke-width="3" stroke-linejoin="round"/>
<path fill-rule="evenodd" clip-rule="evenodd" d="M124.344 107.228C125.082 104.241 127.577 100.857 130.65 99.6851C134.989 100.9 136.699 106.042 137.386 108.268C136.338 110.007 134.795 116.254 131.768 115.987C129.81 115.148 126.188 109.778 124.344 107.228V107.228Z" fill="#5B9D57" stroke="white" stroke-width="3" stroke-linejoin="round"/>
<path fill-rule="evenodd" clip-rule="evenodd" d="M100.317 102.968C103.143 104.049 103.34 107.008 100.019 110.435C98.9707 112.174 98.0149 111.035 93.9396 112.507C91.8058 109.877 97.2441 104.14 100.317 102.968V102.968Z" fill="#5B9D57" stroke="white" stroke-width="3" stroke-linejoin="round"/>
<path fill-rule="evenodd" clip-rule="evenodd" d="M108.564 106.003C109.302 103.016 111.797 101.682 114.87 100.509C119.209 101.725 120.919 104.817 121.606 107.043C120.558 108.782 117.703 114.081 114.675 113.814C112.718 112.975 110.408 108.553 108.563 106.003H108.564Z" fill="#5B9D57" stroke="white" stroke-width="3" stroke-linejoin="round"/>
<path fill-rule="evenodd" clip-rule="evenodd" d="M99.3645 110.688C100.103 107.7 102.597 106.366 105.671 105.194C110.01 106.409 111.72 109.502 112.407 111.727C111.359 113.466 108.818 116.24 104.743 117.712C102.785 116.873 101.209 113.237 99.3643 110.688L99.3645 110.688Z" fill="#5B9D57" stroke="white" stroke-width="3" stroke-linejoin="round"/>
<path fill-rule="evenodd" clip-rule="evenodd" d="M117.258 113.375C117.996 110.387 119.535 107.914 122.608 106.742C126.947 107.957 130.77 112.513 131.458 114.738C130.41 116.477 126.309 120.556 123.282 120.289C121.324 119.45 119.102 115.924 117.258 113.375V113.375Z" fill="#5B9D57" stroke="white" stroke-width="3" stroke-linejoin="round"/>
<path fill-rule="evenodd" clip-rule="evenodd" d="M132.325 114.983C133.064 111.996 135.76 109.847 138.833 108.674C143.172 109.89 144.882 112.982 145.57 115.208C144.521 116.947 142.802 121.403 139.775 121.136C137.817 120.297 134.17 117.533 132.325 114.983H132.325Z" fill="#5B9D57" stroke="white" stroke-width="3" stroke-linejoin="round"/>
<path fill-rule="evenodd" clip-rule="evenodd" d="M143.007 121.17C144.055 119.43 142.19 115.713 144.685 114.379C149.912 117.005 153.22 124.901 149.144 126.373C147.186 125.535 144.851 123.719 143.007 121.17H143.007Z" fill="#5B9D57" stroke="white" stroke-width="3" stroke-linejoin="round"/>
<path fill-rule="evenodd" clip-rule="evenodd" d="M125.547 121.021C126.285 118.033 128.78 116.699 131.853 115.526C136.192 116.742 137.903 119.834 138.59 122.06C137.542 123.799 136.958 127.411 132.883 128.883C130.925 128.045 127.392 123.57 125.547 121.021H125.547Z" fill="#5B9D57" stroke="white" stroke-width="3" stroke-linejoin="round"/>
<path fill-rule="evenodd" clip-rule="evenodd" d="M105.042 118.376C105.78 115.388 109.37 110.876 114.065 111.9C117.113 113.335 120.693 116.37 120.802 118.434C119.753 120.173 118.458 124.166 114.382 125.639C110.198 125.048 106.886 120.926 105.042 118.376V118.376Z" fill="#5B9D57" stroke="white" stroke-width="3" stroke-linejoin="round"/>
<path fill-rule="evenodd" clip-rule="evenodd" d="M93.5215 109.196C96.6365 110.359 93.5169 112.971 92.8458 115.687C91.7975 117.426 90.1225 119.037 86.047 120.509C83.9133 117.879 90.4482 110.369 93.5214 109.197L93.5215 109.196Z" fill="#5B9D57" stroke="white" stroke-width="3" stroke-linejoin="round"/>
<path fill-rule="evenodd" clip-rule="evenodd" d="M91.3428 116.863C92.0809 113.876 94.7099 111.998 97.7831 110.826C100.164 111.203 103.698 115.677 104.386 117.903C103.337 119.642 101.375 122.578 97.2999 124.05C95.342 123.211 93.1874 119.413 91.343 116.863H91.3428Z" fill="#5B9D57" stroke="white" stroke-width="3" stroke-linejoin="round"/>
<path fill-rule="evenodd" clip-rule="evenodd" d="M83.6992 124.016C84.4374 121.029 87.8462 118.498 90.9194 117.326C95.2585 118.542 96.0549 122.83 96.7422 125.056C95.6939 126.795 92.3521 129.054 88.2769 130.526C86.3191 129.687 85.5438 126.566 83.6992 124.016V124.016Z" fill="#5B9D57" stroke="white" stroke-width="3" stroke-linejoin="round"/>
<path fill-rule="evenodd" clip-rule="evenodd" d="M96.3577 126.493C97.0958 123.505 100.664 117.825 105.36 118.85C108.718 121.533 111.631 123.51 113.186 125.979C112.138 127.718 110.377 129.839 105.677 132.588C101.493 131.997 98.2018 129.042 96.3574 126.493L96.3577 126.493Z" fill="#5B9D57" stroke="white" stroke-width="3" stroke-linejoin="round"/>
<path fill-rule="evenodd" clip-rule="evenodd" d="M115.412 125.731C116.15 122.744 119.76 119.399 123.345 118.66C126.703 121.343 128.77 124.245 130.392 126.442C129.344 128.181 128.828 131.522 124.752 132.994C120.769 131.588 117.256 128.281 115.412 125.731V125.731Z" fill="#5B9D57" stroke="white" stroke-width="3" stroke-linejoin="round"/>
<path fill-rule="evenodd" clip-rule="evenodd" d="M136.072 127.359C136.81 124.371 139.02 119.181 143.07 120.316C148.21 122.046 148.428 126.172 149.115 128.398C148.666 131.467 146.193 133.969 142.008 133.377C140.05 132.539 137.917 129.908 136.072 127.359Z" fill="#5B9D57" stroke="white" stroke-width="3" stroke-linejoin="round"/>
<path fill-rule="evenodd" clip-rule="evenodd" d="M144.769 134.73C145.507 131.742 147.805 127.449 150.878 126.277C154.391 129.584 155.162 136.479 152.44 141.235C147.497 142.464 146.613 137.279 144.769 134.73H144.769Z" fill="#5B9D57" stroke="white" stroke-width="3" stroke-linejoin="round"/>
<path fill-rule="evenodd" clip-rule="evenodd" d="M125.064 134.243C125.803 131.255 129.392 126.742 134.087 127.767C138.427 128.982 141.873 132.561 140.824 134.3C139.776 136.04 138.459 138.865 134.384 140.338C130.2 139.747 126.909 136.792 125.064 134.243Z" fill="#5B9D57" stroke="white" stroke-width="3" stroke-linejoin="round"/>
<path fill-rule="evenodd" clip-rule="evenodd" d="M106.7 133.457C107.438 130.469 110.981 127.396 114.478 125.761C118.26 127.982 124.443 131.747 123.395 133.486C122.347 135.225 120.606 138.513 116.531 139.986C112.347 139.394 108.545 136.006 106.7 133.457V133.457Z" fill="#5B9D57" stroke="white" stroke-width="3" stroke-linejoin="round"/>
<path fill-rule="evenodd" clip-rule="evenodd" d="M88.9622 131.393C90.8575 128.729 92.1742 125.904 96.1361 126.142C100.475 127.357 102.697 130.884 104.541 133.433C103.493 135.173 100.529 138.408 96.4532 139.88C92.2692 139.289 90.8065 133.942 88.9619 131.393H88.9622Z" fill="#5B9D57" stroke="white" stroke-width="3" stroke-linejoin="round"/>
<path fill-rule="evenodd" clip-rule="evenodd" d="M84.2797 124.179C88.6188 125.394 86.9665 129.578 87.6541 131.804C86.6058 133.543 84.9338 137.336 80.8586 138.808C78.7248 136.178 81.2066 125.351 84.28 124.179H84.2797Z" fill="#5B9D57" stroke="white" stroke-width="3" stroke-linejoin="round"/>
<path fill-rule="evenodd" clip-rule="evenodd" d="M82.1006 139.249C82.8388 136.261 84.8474 131.887 87.9206 130.715C92.2597 131.93 94.456 138.063 95.1435 140.288C94.0952 142.028 92.1121 143.796 88.0367 145.268C86.0788 144.429 83.9452 141.799 82.1006 139.249V139.249Z" fill="#5B9D57" stroke="white" stroke-width="3" stroke-linejoin="round"/>
<path fill-rule="evenodd" clip-rule="evenodd" d="M97.8115 139.388C98.5497 136.4 101.56 131.725 106.256 132.75C109.17 134.728 112.75 137.763 112.859 139.827C111.81 141.566 111.227 145.178 107.152 146.65C102.968 146.059 99.6562 141.937 97.8118 139.388H97.8115Z" fill="#5B9D57" stroke="white" stroke-width="3" stroke-linejoin="round"/>
<path fill-rule="evenodd" clip-rule="evenodd" d="M117.621 140.581C118.359 137.593 120.812 133.924 124.175 132.833C128.514 134.048 133.561 138.656 133.381 140.638C132.333 142.378 128.655 145.994 124.58 147.467C120.396 146.876 119.466 143.13 117.621 140.581V140.581Z" fill="#5B9D57" stroke="white" stroke-width="3" stroke-linejoin="round"/>
<path fill-rule="evenodd" clip-rule="evenodd" d="M133.804 140.176C134.542 137.188 138.131 132.676 142.827 133.7C147.166 134.915 149.006 141.239 147.957 142.978C146.909 144.718 147.442 146.319 143.366 147.791C139.182 147.2 135.648 142.725 133.804 140.176V140.176Z" fill="#5B9D57" stroke="white" stroke-width="3" stroke-linejoin="round"/>
<path fill-rule="evenodd" clip-rule="evenodd" d="M146.222 147.625C147.228 143.55 147.61 140.753 151.773 140.177C154.506 144.137 153.609 150.275 149.533 151.747C147.576 150.908 148.066 150.174 146.222 147.625H146.222Z" fill="#5B9D57" stroke="white" stroke-width="3" stroke-linejoin="round"/>
<path fill-rule="evenodd" clip-rule="evenodd" d="M126.25 148.224C126.988 145.236 130.578 140.723 135.273 141.748C139.612 142.963 143.058 146.542 142.01 148.281C140.961 150.021 140.957 153.795 136.882 155.267C132.698 154.676 128.094 150.773 126.25 148.224Z" fill="#5B9D57" stroke="white" stroke-width="3" stroke-linejoin="round"/>
<path fill-rule="evenodd" clip-rule="evenodd" d="M107.44 146.732C109.336 144.069 110.477 139.451 116.442 139.089C119.49 140.523 124.114 145.594 123.066 147.333C122.018 149.073 120.655 153.337 116.579 154.81C112.395 154.219 109.285 149.282 107.44 146.732Z" fill="#5B9D57" stroke="white" stroke-width="3" stroke-linejoin="round"/>
<path fill-rule="evenodd" clip-rule="evenodd" d="M89.0322 147.385C89.7704 144.397 92.3368 139.017 97.0115 138.874C101.015 141.448 105.396 144.998 105.794 147.142C104.746 148.882 102.427 152.008 98.3519 153.48C94.1679 152.889 90.8769 149.934 89.0325 147.385H89.0322Z" fill="#5B9D57" stroke="white" stroke-width="3" stroke-linejoin="round"/>
<path fill-rule="evenodd" clip-rule="evenodd" d="M82.4364 137.891C86.7754 139.106 88.9717 145.239 89.6593 147.465C88.611 149.204 86.4518 149.18 82.3766 150.652C77.2829 147.483 79.3632 139.063 82.4365 137.891H82.4364Z" fill="#5B9D57" stroke="white" stroke-width="3" stroke-linejoin="round"/>
<path fill-rule="evenodd" clip-rule="evenodd" d="M80.1182 148.423C84.4572 149.639 83.7862 152.355 84.4737 154.58C83.4255 156.32 86.9176 159.279 82.8423 160.751C80.7086 158.121 78.5848 150.62 80.1183 148.423H80.1182Z" fill="#5B9D57" stroke="white" stroke-width="3" stroke-linejoin="round"/>
<path fill-rule="evenodd" clip-rule="evenodd" d="M82.4561 153.965C83.1942 150.977 86.7836 146.465 91.4791 147.489C95.8182 148.705 99.2643 152.283 98.2158 154.023C99.2133 157.497 95.536 161.114 91.4608 162.586C87.2769 161.995 84.3007 156.515 82.4561 153.965V153.965Z" fill="#5B9D57" stroke="white" stroke-width="3" stroke-linejoin="round"/>
<path fill-rule="evenodd" clip-rule="evenodd" d="M98.3711 154.647C99.1093 151.659 103.034 145.789 107.73 146.813C112.069 148.029 115.179 152.965 114.131 154.705C113.083 156.444 111.766 159.27 107.691 160.742C103.507 160.151 100.215 157.197 98.3711 154.647Z" fill="#5B9D57" stroke="white" stroke-width="3" stroke-linejoin="round"/>
<path fill-rule="evenodd" clip-rule="evenodd" d="M117.245 155.867C117.983 152.879 121.619 146.927 125.224 147.356C128.05 148.438 135.055 153.885 134.007 155.624C132.959 157.364 130.728 161.385 126.653 162.858C122.469 162.267 119.09 158.416 117.245 155.867Z" fill="#5B9D57" stroke="white" stroke-width="3" stroke-linejoin="round"/>
<path fill-rule="evenodd" clip-rule="evenodd" d="M137.798 155.43C138.536 152.442 142.348 148.282 145.421 147.11C152.586 149.407 150.475 164.208 143.466 162.535C141.508 161.696 139.642 157.979 137.798 155.43L137.798 155.43Z" fill="#5B9D57" stroke="white" stroke-width="3" stroke-linejoin="round"/>
<path fill-rule="evenodd" clip-rule="evenodd" d="M127.638 162.751C128.376 159.763 133.055 155.846 136.128 154.674C140.468 155.889 142.153 161.588 142.84 163.814C141.792 165.553 139.808 167.321 135.733 168.793C133.775 167.955 129.482 165.3 127.638 162.751H127.638Z" fill="#5B9D57" stroke="white" stroke-width="3" stroke-linejoin="round"/>
<path fill-rule="evenodd" clip-rule="evenodd" d="M108.466 163.864C107.691 160.742 111.884 153.785 116.579 154.81C120.918 156.025 126.297 163.05 125.249 164.789C124.2 166.528 122.883 169.354 118.808 170.826C114.624 170.235 110.31 166.413 108.466 163.864H108.466Z" fill="#5B9D57" stroke="white" stroke-width="3" stroke-linejoin="round"/>
<path fill-rule="evenodd" clip-rule="evenodd" d="M82.7197 161.784C83.4579 158.796 82.7451 159.177 85.8185 158.005C90.1575 159.22 95.4225 167.955 96.1099 170.181C90.5882 171.248 84.5641 164.333 82.7197 161.784V161.784Z" fill="#5B9D57" stroke="white" stroke-width="3" stroke-linejoin="round"/>
<path fill-rule="evenodd" clip-rule="evenodd" d="M105.745 173.752C106.131 167.18 109.628 165.546 112.676 166.981C117.015 168.196 122.6 170.631 121.505 173.81C120.457 175.549 116.846 178.894 111.681 179.771C109.723 178.932 107.59 176.301 105.745 173.752V173.752Z" fill="#5B9D57" stroke="white" stroke-width="3" stroke-linejoin="round"/>
<path fill-rule="evenodd" clip-rule="evenodd" d="M121.018 170.769C121.756 167.781 124.343 163.569 127.416 162.397C131.755 163.612 135.31 169.254 135.997 171.48C134.949 173.219 130.807 174.963 126.732 176.435C122.548 175.844 121.147 174 121.018 170.769V170.769Z" fill="#5B9D57" stroke="white" stroke-width="3" stroke-linejoin="round"/>
<path fill-rule="evenodd" clip-rule="evenodd" d="M135.309 169.254C136.047 166.266 142.326 163.421 145.4 162.249C147.466 165.151 143.719 172.771 139.153 174.977C137.195 174.138 137.153 171.803 135.309 169.254Z" fill="#5B9D57" stroke="white" stroke-width="3" stroke-linejoin="round"/>
<path fill-rule="evenodd" clip-rule="evenodd" d="M127.513 178.276C126.004 174.369 129.833 174.698 132.818 172.63C135.094 172.715 137.228 170.252 139.026 174.24C136.774 177.095 128.934 181.288 127.513 178.276V178.276Z" fill="#5B9D57" stroke="white" stroke-width="3" stroke-linejoin="round"/>
<path fill-rule="evenodd" clip-rule="evenodd" d="M91.8887 163.483C92.6268 160.495 98.3753 156.006 100.333 156.845C104.672 158.061 108.986 161.883 108.847 166.2C107.618 169.921 104.767 171.446 99.6691 172.051C97.7113 171.212 93.7331 166.032 91.8887 163.483Z" fill="#5B9D57" stroke="white" stroke-width="3" stroke-linejoin="round"/>
<path fill-rule="evenodd" clip-rule="evenodd" d="M94.4893 170.479C98.2545 167.758 101.767 171.065 104.061 170.546C105.952 171.656 107.372 174.668 109.171 178.657C105.163 179.857 95.9102 173.491 94.4893 170.479V170.479Z" fill="#5B9D57" stroke="white" stroke-width="3" stroke-linejoin="round"/>
<path fill-rule="evenodd" clip-rule="evenodd" d="M113.644 179.328C117.409 176.607 119.681 174.921 121.974 174.401C123.865 175.512 125.668 175.726 129.047 179.577C126.418 181.454 115.064 182.34 113.644 179.328V179.328Z" fill="#5B9D57" stroke="white" stroke-width="3" stroke-linejoin="round"/>
<path fill-rule="evenodd" clip-rule="evenodd" d="M109.375 94.5606C107.94 85.3467 96.5511 90.1298 87.3815 94.6951C99.36 81.2653 113.606 87.4494 113.606 87.4494C106.96 80.5521 103.813 69.5039 86.7412 67.2405C107.774 63.4803 116.475 83.3467 123.031 85.6026C121.69 77.8837 119.757 76.1727 126.178 58.1571C130.778 63.8638 132.697 83.0876 130.836 88.6092C131.197 91.3953 148.062 69.7297 175.95 79.2203C163.22 76.914 138.782 90.6952 137.429 93.6727C140.222 97.3922 159.164 80.8134 165.123 98.0082C157.604 93.3849 140.528 96.155 142.834 103.095C134.639 97.4538 125.365 94.93 109.373 94.5628L109.375 94.5606Z" fill="#5B9D57" stroke="white" stroke-width="3" stroke-linejoin="round"/>
</g>
<defs>
<filter id="filter0_d_430_684" x="-10" y="-6" width="263" height="258" filterUnits="userSpaceOnUse" color-interpolation-filters="sRGB">
<feFlood flood-opacity="0" result="BackgroundImageFix"/>
<feColorMatrix in="SourceAlpha" type="matrix" values="0 0 0 0 0 0 0 0 0 0 0 0 0 0 0 0 0 0 127 0" result="hardAlpha"/>
<feOffset/>
<feGaussianBlur stdDeviation="20"/>
<feComposite in2="hardAlpha" operator="out"/>
<feColorMatrix type="matrix" values="0 0 0 0 0.356863 0 0 0 0 0.615686 0 0 0 0 0.341176 0 0 0 1 0"/>
<feBlend mode="normal" in2="BackgroundImageFix" result="effect1_dropShadow_430_684"/>
<feBlend mode="normal" in="SourceGraphic" in2="effect1_dropShadow_430_684" result="shape"/>
</filter>
</defs>
</svg>
